<svg width="40" height="40" viewBox="0 0 40 40" fill="none" xmlns="http://www.w3.org/2000/svg">
<g clip-path="url(#clip0_876_2070)">
<g clip-path="url(#clip1_876_2070)">
<path fill-rule="evenodd" clip-rule="evenodd" d="M20 0C31.046 0 40 8.954 40 20C40 31.046 31.046 40 20 40C8.954 40 0 31.046 0 20C0 8.954 8.954 0 20 0Z" fill="black"/>
<path d="M20.223 12.6121C21.055 12.6121 22.098 12.0321 22.719 11.2591C23.281 10.5591 23.691 9.58005 23.691 8.60205C23.691 8.46905 23.68 8.33605 23.656 8.22705C22.73 8.26405 21.617 8.86705 20.949 9.67705C20.422 10.2931 19.941 11.2591 19.941 12.2501C19.941 12.3941 19.965 12.5401 19.977 12.5881C20.035 12.6001 20.129 12.6121 20.223 12.6121ZM17.293 27.2271C18.43 27.2271 18.933 26.4421 20.352 26.4421C21.793 26.4421 22.109 27.203 23.375 27.203C24.617 27.203 25.449 26.0191 26.235 24.8601C27.113 23.531 27.477 22.2271 27.5 22.1661C27.418 22.1421 25.04 21.1401 25.04 18.3261C25.04 15.8861 26.914 14.7861 27.02 14.7021C25.777 12.8661 23.89 12.8171 23.375 12.8171C21.98 12.8171 20.844 13.6871 20.129 13.6871C19.355 13.6871 18.336 12.8661 17.129 12.8661C14.832 12.8661 12.5 14.8221 12.5 18.5181C12.5 20.8131 13.367 23.241 14.434 24.812C15.348 26.14 16.144 27.2271 17.293 27.2271Z" fill="white"/>
</g>
</g>
<defs>
<clipPath id="clip0_876_2070">
<rect width="40" height="40" fill="white"/>
</clipPath>
<clipPath id="clip1_876_2070">
<rect width="40" height="40" fill="white"/>
</clipPath>
</defs>
</svg>
