<svg width="16" height="12" viewBox="0 0 16 12" fill="none" xmlns="http://www.w3.org/2000/svg">
<path d="M7.98387 4.15285C8.56136 4.15285 9.11519 4.38225 9.52354 4.7906C9.93188 5.19894 10.1613 5.75278 10.1613 6.33027C10.1613 6.90775 9.93188 7.46159 9.52354 7.86994C9.11519 8.27828 8.56136 8.50769 7.98387 8.50769C7.40638 8.50769 6.85255 8.27828 6.4442 7.86994C6.03586 7.46159 5.80645 6.90775 5.80645 6.33027C5.80645 5.75278 6.03586 5.19894 6.4442 4.7906C6.85255 4.38225 7.40638 4.15285 7.98387 4.15285ZM7.98387 0.886719C11.6129 0.886719 14.7121 3.14398 15.9677 6.33027C14.7121 9.51656 11.6129 11.7738 7.98387 11.7738C4.35484 11.7738 1.25565 9.51656 0 6.33027C1.25565 3.14398 4.35484 0.886719 7.98387 0.886719ZM1.58226 6.33027C2.77984 8.76898 5.25484 10.3222 7.98387 10.3222C10.7129 10.3222 13.1879 8.76898 14.3855 6.33027C13.1879 3.89156 10.7129 2.33833 7.98387 2.33833C5.25484 2.33833 2.77984 3.89156 1.58226 6.33027Z" fill="black"/>
</svg>
