<svg width="40" height="40" viewBox="0 0 40 40" fill="none" xmlns="http://www.w3.org/2000/svg">
<g clip-path="url(#clip0_876_2078)">
<g clip-path="url(#clip1_876_2078)">
<path fill-rule="evenodd" clip-rule="evenodd" d="M24.256 21.0592L24.7941 17.7937H21.426V15.6746C21.426 14.781 21.896 13.9101 23.4051 13.9101H24.9369V11.1301C24.9369 11.1301 23.546 10.9092 22.2187 10.9092C19.4441 10.9092 17.6305 12.4728 17.6305 15.3046V17.7937H14.5469V21.0592H17.6305V28.9537C18.889 29.1375 20.1675 29.1375 21.426 28.9537V21.0592H24.256Z" fill="white"/>
<path d="M40 20C40 8.9543 31.0457 0 20 0C8.9543 0 0 8.9543 0 20C0 31.0457 8.9543 40 20 40C31.0457 40 40 31.0457 40 20Z" fill="#1877F2"/>
<path fill-rule="evenodd" clip-rule="evenodd" d="M23.8923 21.0592L24.4105 17.7937H21.1678V15.6746C21.1678 14.781 21.6205 13.9101 23.0732 13.9101H24.5469V11.1301C24.5469 11.1301 23.2096 10.9092 21.9305 10.9092C19.2596 10.9092 17.5151 12.4728 17.5151 15.3046V17.7937H14.5469V21.0592H17.5151V28.9537C18.7257 29.1374 19.9571 29.1374 21.1678 28.9537V21.0592H23.8914H23.8923Z" fill="white"/>
</g>
</g>
<defs>
<clipPath id="clip0_876_2078">
<rect width="40" height="40" fill="white"/>
</clipPath>
<clipPath id="clip1_876_2078">
<rect width="40" height="40" fill="white"/>
</clipPath>
</defs>
</svg>
