<svg width="40" height="40" viewBox="0 0 40 40" fill="none" xmlns="http://www.w3.org/2000/svg">
<g clip-path="url(#clip0_876_2059)">
<g clip-path="url(#clip1_876_2059)">
<path d="M20.0007 39.0476C30.5205 39.0476 39.0484 30.5197 39.0484 20C39.0484 9.4803 30.5205 0.952393 20.0007 0.952393C9.48103 0.952393 0.953125 9.4803 0.953125 20C0.953125 30.5197 9.48103 39.0476 20.0007 39.0476Z" fill="white" stroke="#E2E2E2" stroke-width="0.952381"/>
<path d="M19.9188 14.659C21.5292 14.659 22.6159 15.3542 23.235 15.9352L25.655 13.5732C24.1692 12.1904 22.234 11.3428 19.9188 11.3428C18.3292 11.3426 16.7709 11.7845 15.418 12.6191C14.0652 13.4536 12.971 14.6479 12.2578 16.0685L15.0311 18.2218C15.7264 16.1552 17.6511 14.659 19.9188 14.659Z" fill="#EA4335"/>
<path d="M28.1504 20.1086C28.1504 19.4038 28.0932 18.8895 27.9694 18.3562H19.918V21.5381H24.6446C24.5494 22.3286 24.0351 23.52 22.8913 24.321L25.597 26.4162C27.217 24.921 28.1504 22.72 28.1504 20.1086Z" fill="#4285F4"/>
<path d="M15.0409 21.6141C14.8536 21.0684 14.7571 20.4958 14.7552 19.9189C14.7552 19.3274 14.8599 18.756 15.0314 18.2217L12.258 16.0693C11.6576 17.2631 11.3445 18.5807 11.3438 19.917C11.3437 21.2989 11.6771 22.6046 12.258 23.7665L15.0409 21.6141Z" fill="#FBBC05"/>
<path d="M19.9171 28.4943C22.2323 28.4943 24.1761 27.7324 25.5961 26.4171L22.8904 24.3209C22.1666 24.8257 21.1942 25.1781 19.9171 25.1781C17.6504 25.1781 15.7247 23.6828 15.039 21.6143L12.2656 23.7676C13.6761 26.5695 16.5637 28.4943 19.9171 28.4943Z" fill="#34A853"/>
</g>
</g>
<defs>
<clipPath id="clip0_876_2059">
<rect width="40" height="40" fill="white"/>
</clipPath>
<clipPath id="clip1_876_2059">
<rect width="40" height="40" fill="white"/>
</clipPath>
</defs>
</svg>
