<svg width="120" height="120" viewBox="0 0 120 120" fill="none" xmlns="http://www.w3.org/2000/svg">
<path d="M48.75 108.333H70.4167V113.75C70.4167 117 68.25 119.167 65 119.167H54.1667C50.9167 119.167 48.75 117 48.75 113.75V108.333ZM0 65H16.25V54.1667H0V65ZM21.125 13.5417L13.5417 21.125L24.9167 32.5L32.5 24.9167L21.125 13.5417ZM65 0H54.1667V16.25H65V0ZM102.917 54.1667V65H119.167V54.1667H102.917ZM92.0833 59.5833C92.0833 71.5 85.5833 82.3333 75.8333 87.75V97.5C75.8333 100.75 73.6667 102.917 70.4167 102.917H48.75C45.5 102.917 43.3333 100.75 43.3333 97.5V87.75C33.5833 82.3333 27.0833 71.5 27.0833 59.5833C27.0833 41.7083 41.7083 27.0833 59.5833 27.0833C77.4583 27.0833 92.0833 41.7083 92.0833 59.5833ZM37.9167 59.5833H81.25C81.25 47.6125 71.5542 37.9167 59.5833 37.9167C47.6125 37.9167 37.9167 47.6125 37.9167 59.5833ZM98.0417 13.5417L86.6667 24.9167L94.25 32.5L105.625 21.125L98.0417 13.5417Z" fill="black"/>
</svg>
