<svg width="40" height="40" viewBox="0 0 40 40" fill="none" xmlns="http://www.w3.org/2000/svg">
<g clip-path="url(#clip0_876_2050)">
<g clip-path="url(#clip1_876_2050)">
<path d="M20 40C31.0457 40 40 31.0457 40 20C40 8.9543 31.0457 0 20 0C8.9543 0 0 8.9543 0 20C0 31.0457 8.9543 40 20 40Z" fill="#FFE600"/>
<path fill-rule="evenodd" clip-rule="evenodd" d="M15.7903 24.9949C15.0103 24.3899 14.2113 23.8889 13.5623 23.2469C11.0283 20.7419 11.2853 17.1939 14.1213 14.8269C17.4663 12.0359 23.4073 12.0259 26.7623 14.8059C29.9703 17.4629 29.8493 21.5679 26.4743 24.0299C24.3193 25.6019 21.8593 26.0739 19.2133 25.8399C19.0167 25.8241 18.82 25.8684 18.6493 25.9669C17.6263 26.6139 16.6213 27.2869 15.6023 27.9369C15.4693 28.0219 15.2873 28.0349 15.1283 28.0809C15.1133 27.9129 15.0513 27.7329 15.0903 27.5779C15.3193 26.6839 15.5703 25.7959 15.7903 24.9949Z" fill="#391B1B"/>
</g>
</g>
<defs>
<clipPath id="clip0_876_2050">
<rect width="40" height="40" fill="white"/>
</clipPath>
<clipPath id="clip1_876_2050">
<rect width="40" height="40" fill="white"/>
</clipPath>
</defs>
</svg>
