<?xml version="1.0" standalone="no"?>
<!DOCTYPE svg PUBLIC "-//W3C//DTD SVG 20010904//EN"
 "http://www.w3.org/TR/2001/REC-SVG-20010904/DTD/svg10.dtd">
<svg version="1.0" xmlns="http://www.w3.org/2000/svg"
 width="512.000000pt" height="512.000000pt" viewBox="0 0 512.000000 512.000000"
 preserveAspectRatio="xMidYMid meet">

<g transform="translate(0.000000,512.000000) scale(0.100000,-0.100000)"
fill="#000000" stroke="none">
<path d="M2495 4629 c-31 -17 -1134 -1121 -1151 -1151 -8 -15 -14 -49 -14 -75
0 -90 63 -153 153 -153 26 0 60 6 75 14 15 8 209 197 432 420 l405 406 5
-1354 c5 -1349 5 -1355 26 -1382 39 -53 71 -69 134 -69 63 0 95 16 134 69 21
27 21 33 26 1382 l5 1354 405 -406 c223 -223 417 -412 432 -420 15 -8 49 -14
75 -14 90 0 153 63 153 153 0 26 -6 60 -14 75 -18 33 -1122 1135 -1153 1151
-28 14 -102 14 -128 0z"/>
<path d="M575 2066 c-41 -18 -83 -69 -90 -109 -3 -18 -5 -304 -3 -637 l3 -605
34 -63 c38 -70 69 -100 145 -140 l51 -27 1845 0 1845 0 51 27 c76 40 107 70
145 140 l34 63 0 632 c0 622 0 632 -21 659 -39 53 -71 69 -134 69 -63 0 -95
-16 -134 -69 -21 -27 -21 -39 -24 -617 l-2 -589 -1760 0 -1760 0 -2 589 c-3
578 -3 590 -24 617 -11 15 -32 37 -46 47 -33 25 -113 32 -153 13z"/>
</g>
</svg>
